<svg width="512" height="512" viewBox="0 0 512 512" fill="none" xmlns="http://www.w3.org/2000/svg">
  <defs>
    <linearGradient id="bg" x1="72" y1="64" x2="448" y2="448" gradientUnits="userSpaceOnUse">
      <stop stop-color="#2BD5C4"/>
      <stop offset="1" stop-color="#5BB9FF"/>
    </linearGradient>
    <linearGradient id="stroke" x1="130" y1="128" x2="382" y2="392" gradientUnits="userSpaceOnUse">
      <stop stop-color="#FFAA72"/>
      <stop offset="1" stop-color="#FFE2B3"/>
    </linearGradient>
  </defs>
  <rect x="40" y="40" width="432" height="432" rx="128" fill="#07121F"/>
  <rect x="64" y="64" width="384" height="384" rx="104" fill="url(#bg)" fill-opacity="0.18"/>
  <circle cx="256" cy="256" r="132" stroke="url(#stroke)" stroke-width="24"/>
  <path d="M256 106L300 190H212L256 106Z" fill="#D7F8FF"/>
  <path d="M256 406L212 322H300L256 406Z" fill="#D7F8FF"/>
  <path d="M106 256L190 212V300L106 256Z" fill="#D7F8FF"/>
  <path d="M406 256L322 300V212L406 256Z" fill="#D7F8FF"/>
  <path d="M256 154C199.667 154 154 199.667 154 256C154 312.333 199.667 358 256 358C312.333 358 358 312.333 358 256" stroke="#EAF3FF" stroke-width="18" stroke-linecap="round"/>
  <circle cx="256" cy="256" r="18" fill="#FFE2B3"/>
</svg>
